<?xml version="1.0" encoding="utf-8"?>
<!-- Generator: Adobe Illustrator 25.4.1, SVG Export Plug-In . SVG Version: 6.00 Build 0)  -->
<svg version="1.1" id="Capa_1" xmlns="http://www.w3.org/2000/svg" xmlns:xlink="http://www.w3.org/1999/xlink" x="0px" y="0px"
	 viewBox="0 0 40.4 39.7" style="enable-background:new 0 0 40.4 39.7;" xml:space="preserve">
<style type="text/css">
	.st0{fill:#FFFFFF;}
</style>
<g id="Grupo_409" transform="translate(-972.641 -4998.577)">
	<path id="Trazado_375" class="st0" d="M985.9,5026.6l-1.9,3.5l24.8-0.4c1,0,1.9-0.9,1.9-1.9v-0.7c0-1-0.9-1.9-1.9-1.9c0,0,0,0,0,0
		l-17.5,0.3c-0.5,0-1,0.4-1.1,0.9l0,0.2L985.9,5026.6z"/>
	<path id="Trazado_376" class="st0" d="M978.1,5026.7l-1,3.5l-1.5,0c-0.4,0-0.7-0.3-0.7-0.6c0-0.2,0.1-0.4,0.2-0.5l2.2-2.2
		c0.1-0.1,0.2-0.1,0.3-0.1L978.1,5026.7z"/>
	<path id="Trazado_377" class="st0" d="M979.9,5035l16.6-29.9c0.6-1.1,0.2-2.6-0.9-3.2c-0.1,0-0.1-0.1-0.2-0.1l-0.2-0.1
		c-1-0.5-2.3-0.1-2.9,0.8l-5.1,7.4c-3,4.4-5.4,9.2-7,14.3l-2.9,9.5c-0.1,0.3,0,0.6,0.3,0.8l1.4,0.7
		C979.3,5035.4,979.7,5035.3,979.9,5035"/>
</g>
</svg>
