<svg xmlns="http://www.w3.org/2000/svg" xmlns:xlink="http://www.w3.org/1999/xlink" width="344" height="21" viewBox="0 0 344 21">
  <defs>
    <clipPath id="clip-path">
      <path id="Trazado_330" data-name="Trazado 330" d="M0-7H176.108V-26.064H0Z" transform="translate(0 26.064)" fill="#a1831f"/>
    </clipPath>
  </defs>
  <g id="Grupo_511" data-name="Grupo 511" transform="translate(-208.754 -3260.682)">
    <text id="_250" data-name="+  $ 250" transform="translate(457.754 3278.682)" fill="#a1831f" font-size="23" font-family="Gotham-Book, Gotham"><tspan x="0" y="0" xml:space="preserve">+  $ 250</tspan></text>
    <text id="EN" transform="translate(208.754 3278.682)" fill="#a1831f" font-size="23" font-family="Gotham-Book, Gotham"><tspan x="0" y="0">EN</tspan></text>
    <g id="Grupo_441" data-name="Grupo 441" transform="translate(262.246 3287.309)">
      <g id="Grupo_359" data-name="Grupo 359" transform="translate(0 -26.064)" clip-path="url(#clip-path)">
        <g id="Grupo_350" data-name="Grupo 350" transform="translate(75.195 4.392)">
          <path id="Trazado_321" data-name="Trazado 321" d="M-3.165-2.523a.3.3,0,0,0-.28-.079l-1.611.293A.05.05,0,0,1-5.1-2.393L-.288-7.335a.29.29,0,0,0,0-.426L-1.8-9.31a.288.288,0,0,0-.416,0L-5.084-6.362a.324.324,0,0,0-.078.287l.285,1.661a.049.049,0,0,1-.082.045L-9.78-9.31a.308.308,0,0,0-.416,0L-11.7-7.762a.307.307,0,0,0,0,.426l2.871,2.947a.3.3,0,0,0,.28.079l1.622-.29a.05.05,0,0,1,.044.084S-10.6-.707-11.7.431a.307.307,0,0,0,0,.426L-10.2,2.407a.288.288,0,0,0,.416,0l2.875-2.95a.32.32,0,0,0,.078-.287l-.282-1.655a.049.049,0,0,1,.082-.045l4.815,4.938a.3.3,0,0,0,.416,0L-.288.857a.306.306,0,0,0,0-.426Z" transform="translate(11.791 9.399)" fill="#a1831f"/>
        </g>
        <g id="Grupo_351" data-name="Grupo 351" transform="translate(0 0.212)">
          <path id="Trazado_322" data-name="Trazado 322" d="M-5.576-5.025A4.189,4.189,0,0,1-7.92-.944a4.467,4.467,0,0,1-1.448.5,16,16,0,0,1-2.923.237l-8.479-.026a3.926,3.926,0,0,0,1.4-.29,1.98,1.98,0,0,0,1.159-1.949V-16.507a1.981,1.981,0,0,0-.9-1.685,2.9,2.9,0,0,0-.764-.316,2.124,2.124,0,0,0-.9-.158l7.952-.053c3.924,0,5.952,1.317,5.952,4.45a4.1,4.1,0,0,1-3.819,4.451c2.028,0,5.109.764,5.109,4.793M-15.767-9.845A25.307,25.307,0,0,0-12.9-9.95a3.509,3.509,0,0,0,2.871-1.422,5.22,5.22,0,0,0,.764-3c-.026-1.764-.632-2.923-1.87-3.45a9.648,9.648,0,0,0-4.634-.658Zm2.817.316c-.764-.053-1.685-.053-2.817-.026V-2.6a2.281,2.281,0,0,0,.632,1.685,2.228,2.228,0,0,0,.711.342A5.788,5.788,0,0,0-12.9-.443c2.476.053,4.714-.974,4.767-4.4C-8.1-8.028-9.869-9.45-12.95-9.529" transform="translate(20.771 18.719)" fill="#a1831f"/>
        </g>
        <g id="Grupo_352" data-name="Grupo 352" transform="translate(17.665 0.053)">
          <path id="Trazado_323" data-name="Trazado 323" d="M-6.042-1.14a10.469,10.469,0,0,1,1.9,6.478,9.637,9.637,0,0,1-2.66,6.688,8.829,8.829,0,0,1-6.715,2.634A8.467,8.467,0,0,1-20.5,11.421a10.471,10.471,0,0,1-2-6.4A8.769,8.769,0,0,1-19.683-1.72a9.889,9.889,0,0,1,6.925-2.528A7.866,7.866,0,0,1-6.042-1.14m-2.923-.026A5.5,5.5,0,0,0-13.6-3.8a5.215,5.215,0,0,0-4.608,2.265,9.675,9.675,0,0,0-1.5,6.32,12.01,12.01,0,0,0,2.133,6.451,6.2,6.2,0,0,0,4.634,2.95A4.548,4.548,0,0,0-8.255,12a11.513,11.513,0,0,0,1.29-6.741,11.553,11.553,0,0,0-2-6.426" transform="translate(22.507 4.248)" fill="#a1831f"/>
        </g>
        <g id="Grupo_353" data-name="Grupo 353" transform="translate(39.002 -0.001)">
          <path id="Trazado_324" data-name="Trazado 324" d="M-4.446-1.837A8.027,8.027,0,0,0-6.552-4.576,6.43,6.43,0,0,0-9.765-6.314a4.387,4.387,0,0,0-3.212.4,3.125,3.125,0,0,0-1.29,3.213c.29,1.817,1.816,3,4.555,3.582,5.03,1.053,6.847,2.95,6.452,6.4A4.682,4.682,0,0,1-5.288,11.04a7.75,7.75,0,0,1-4.319,1.185,11.471,11.471,0,0,1-6.9-2l-.053-5a10.353,10.353,0,0,0,2.607,4,8.714,8.714,0,0,0,3.976,2.211,6.207,6.207,0,0,0,3.713-.211,2.667,2.667,0,0,0,1.685-2.58A3.681,3.681,0,0,0-5.789,5.721a10.621,10.621,0,0,0-4.846-2.08A7.85,7.85,0,0,1-14.9,1.508a4.933,4.933,0,0,1-1.053-3.5A4.355,4.355,0,0,1-14.11-5.524a7.086,7.086,0,0,1,4.5-1.317,11.3,11.3,0,0,1,4.556.974l.579.316Z" transform="translate(16.559 6.842)" fill="#a1831f"/>
        </g>
        <g id="Grupo_354" data-name="Grupo 354" transform="translate(54.724 -0.001)">
          <path id="Trazado_325" data-name="Trazado 325" d="M-4.446-1.837A8.027,8.027,0,0,0-6.552-4.576,6.43,6.43,0,0,0-9.765-6.314a4.387,4.387,0,0,0-3.212.4,3.125,3.125,0,0,0-1.29,3.213c.29,1.817,1.816,3,4.555,3.582,5.03,1.053,6.847,2.95,6.452,6.4A4.682,4.682,0,0,1-5.288,11.04a7.75,7.75,0,0,1-4.319,1.185,11.47,11.47,0,0,1-6.9-2l-.053-5a10.353,10.353,0,0,0,2.607,4,8.711,8.711,0,0,0,3.976,2.211,6.207,6.207,0,0,0,3.713-.211,2.667,2.667,0,0,0,1.685-2.58A3.681,3.681,0,0,0-5.789,5.721a10.621,10.621,0,0,0-4.846-2.08A7.85,7.85,0,0,1-14.9,1.508a4.933,4.933,0,0,1-1.053-3.5A4.355,4.355,0,0,1-14.11-5.524a7.084,7.084,0,0,1,4.5-1.317,11.3,11.3,0,0,1,4.556.974l.579.316Z" transform="translate(16.559 6.842)" fill="#a1831f"/>
        </g>
        <g id="Grupo_355" data-name="Grupo 355" transform="translate(93.049 0.149)">
          <path id="Trazado_326" data-name="Trazado 326" d="M-5.209-5.889a5.793,5.793,0,0,0,2.37,2.344l.448.158h-3.9A14.182,14.182,0,0,1-8.08-6.074l-2.4-4.135a3.8,3.8,0,0,0-2.054-1.9,2.092,2.092,0,0,0-.843-.158,3.1,3.1,0,0,0-.421-.026h-.868l-.026,7.268a1.527,1.527,0,0,0,.448,1.132,1.926,1.926,0,0,0,1.5.5H-19.4a3.439,3.439,0,0,0,1.211-.263,1.787,1.787,0,0,0,1.027-1.791V-19.767a1.762,1.762,0,0,0-1.08-1.791,3.33,3.33,0,0,0-1.159-.263c.711,0,1.843-.026,3.345-.053,1.5-.053,2.634-.079,3.344-.053,3.476.026,5.32.474,6.373,2.054a4.29,4.29,0,0,1,.764,2.765,4.63,4.63,0,0,1-1.791,3.66,4.484,4.484,0,0,1-2.476,1.053c.685.211,1.448,1.027,2.265,2.476ZM-8-17.16c.026-3.687-2.265-4.767-6.688-4.53l.026,9.111a19.129,19.129,0,0,0,2.4-.132c2.765-.316,4.24-2,4.266-4.45" transform="translate(19.403 21.937)" fill="#a1831f"/>
        </g>
        <g id="Grupo_356" data-name="Grupo 356" transform="translate(110.239 0.053)">
          <path id="Trazado_327" data-name="Trazado 327" d="M-6.042-1.14a10.469,10.469,0,0,1,1.9,6.478,9.637,9.637,0,0,1-2.66,6.688,8.829,8.829,0,0,1-6.715,2.634A8.467,8.467,0,0,1-20.5,11.421a10.471,10.471,0,0,1-2-6.4A8.769,8.769,0,0,1-19.683-1.72a9.889,9.889,0,0,1,6.926-2.528A7.865,7.865,0,0,1-6.042-1.14m-2.923-.026A5.5,5.5,0,0,0-13.6-3.8a5.216,5.216,0,0,0-4.609,2.265,9.675,9.675,0,0,0-1.5,6.32,12.01,12.01,0,0,0,2.133,6.451,6.2,6.2,0,0,0,4.634,2.95A4.548,4.548,0,0,0-8.255,12a11.513,11.513,0,0,0,1.29-6.741,11.553,11.553,0,0,0-2-6.426" transform="translate(22.507 4.248)" fill="#a1831f"/>
        </g>
        <g id="Grupo_357" data-name="Grupo 357" transform="translate(131.544 0.053)">
          <path id="Trazado_328" data-name="Trazado 328" d="M-6.042-1.14a10.469,10.469,0,0,1,1.9,6.478,9.637,9.637,0,0,1-2.66,6.688,8.829,8.829,0,0,1-6.715,2.634A8.466,8.466,0,0,1-20.5,11.421a10.471,10.471,0,0,1-2-6.4A8.769,8.769,0,0,1-19.683-1.72a9.887,9.887,0,0,1,6.925-2.528A7.866,7.866,0,0,1-6.042-1.14m-2.923-.026A5.5,5.5,0,0,0-13.6-3.8a5.216,5.216,0,0,0-4.608,2.265,9.675,9.675,0,0,0-1.5,6.32,12.01,12.01,0,0,0,2.133,6.451,6.2,6.2,0,0,0,4.634,2.95A4.548,4.548,0,0,0-8.255,12a11.513,11.513,0,0,0,1.29-6.741,11.553,11.553,0,0,0-2-6.426" transform="translate(22.507 4.248)" fill="#a1831f"/>
        </g>
        <g id="Grupo_358" data-name="Grupo 358" transform="translate(151.749 0.238)">
          <path id="Trazado_329" data-name="Trazado 329" d="M-8.07-5.915a2.051,2.051,0,0,0,1.08,2,2.971,2.971,0,0,0,1.29.342h-7.242a2.8,2.8,0,0,0,1.264-.342,2.079,2.079,0,0,0,1.053-2V-17.5q0-1.541-.316-1.58c-.158,0-.369.342-.658,1l-.132.263-6.188,14.51-7.769-14.9c-.711-1.29-1.132-1-1.132.448l-.026,10.586a3.868,3.868,0,0,0,1.053,2.844,3.354,3.354,0,0,0,.948.527,3.146,3.146,0,0,0,1.106.237h-6.32a2.786,2.786,0,0,0,1.08-.237c.869-.369,1.87-1.29,1.87-3.424v-10.8c0-3.292-2.107-3.977-2.528-3.977l-.105-.026h4.951L-18.1-9.207c.974,1.791,1.448,1.9,2.238.105L-10.282-22h4.424A2.289,2.289,0,0,0-8.07-19.556Z" transform="translate(30.059 22.031)" fill="#a1831f"/>
        </g>
      </g>
    </g>
  </g>
</svg>
