<?xml version="1.0" encoding="utf-8"?>
<!-- Generator: Adobe Illustrator 25.4.1, SVG Export Plug-In . SVG Version: 6.00 Build 0)  -->
<svg version="1.1" id="Capa_1" xmlns="http://www.w3.org/2000/svg" xmlns:xlink="http://www.w3.org/1999/xlink" x="0px" y="0px"
	 viewBox="0 0 40.4 42.9" style="enable-background:new 0 0 40.4 42.9;" xml:space="preserve">
<style type="text/css">
	.st0{fill:#FFFFFF;}
</style>
<g id="Grupo_431" transform="translate(0 40.423)">
	<g>
		<g id="Grupo_430">
			<g id="Grupo_427" transform="translate(15.416 -8.828)">
				<path id="Trazado_397" class="st0" d="M2,1.1l3-3c0.7-0.7,0.7-1.9,0-2.6L2.9-6.6l19.8-21.8c0.4-0.4,0.4-1.1,0-1.6l-0.2-0.2
					c-0.4-0.4-1.1-0.4-1.6,0L-0.9-10.4L-3-12.5c-0.7-0.7-1.9-0.7-2.6,0l-3,3L2,1.1z"/>
			</g>
			<g id="Grupo_428" transform="translate(4.334 -18.888)">
				<path id="Trazado_398" class="st0" d="M2,1.1l-4.3,4.3c-0.1,0.1-0.1,0.2,0,0.3l0.6,0.6l3.5-3.2l-3.2,3.5l0.7,0.7L2.7,4l-3.2,3.5
					l0.7,0.7L3.7,5L0.5,8.5l0.7,0.7L4.7,6L1.5,9.5l0.7,0.7L5.7,7l-3.2,3.5l0.7,0.7l3.5-3.2l-3.2,3.5l0.7,0.7l3.5-3.2l-3.2,3.5
					l0.7,0.7l3.5-3.2l-3.2,3.5l0.7,0.7l3.5-3.2l-3.2,3.5l0.7,0.7l3.5-3.2l-3.2,3.5l0.6,0.6C8,16,8.2,16,8.3,15.9l4.3-4.3L2,1.1z"/>
			</g>
			<g id="Grupo_429" transform="translate(6.317 -2.426)">
				<path id="Trazado_399" class="st0" d="M2,1.1c0-1.3-2.4-4.3-2.4-4.3s-2.4,3-2.4,4.3c0,1.3,1.1,2.4,2.4,2.4S2,2.4,2,1.1"/>
			</g>
		</g>
	</g>
</g>
</svg>
