<?xml version="1.0" encoding="utf-8"?>
<!-- Generator: Adobe Illustrator 25.4.1, SVG Export Plug-In . SVG Version: 6.00 Build 0)  -->
<svg version="1.1" id="Capa_1" xmlns="http://www.w3.org/2000/svg" xmlns:xlink="http://www.w3.org/1999/xlink" x="0px" y="0px"
	 viewBox="0 0 40.4 39.7" style="enable-background:new 0 0 40.4 39.7;" xml:space="preserve">
<style type="text/css">
	.st0{fill:#FFFFFF;}
</style>
<g id="Grupo_426" transform="translate(0 37.884)">
	<g>
		<g id="Grupo_425">
			<g id="Grupo_419" transform="translate(28.642 -21.787)">
				<path id="Trazado_390" class="st0" d="M0.3,0.9C0.1,0.7-0.2,0.6-0.4,0.5c-0.3-0.1-0.3-0.1-0.3-0.4c0-1.5,0.1-3,0.1-4.5
					c0.1-1.2,0-2.4-0.3-3.6c-0.5-2.3-2.5-4-4.9-4c-0.2,0-0.3-0.1-0.4-0.2c-0.3-0.3-0.5-0.7-0.9-1c-1.4-1.2-3.1-1.8-4.9-1.9
					c-1.6-0.2-3.3-0.2-4.9,0.1c-2.3,0.3-4.5,1.2-6.3,2.6c-2.4,1.9-3.8,4.2-3.6,7.3c0.1,1.7,0.1,3.5,0.2,5.2c0,0.2,0,0.3-0.3,0.4
					c0,0,0,0-0.1,0c-0.1,0-0.3,0.1-0.4,0.1c-0.8,0.4-1.1,1.2-0.7,3.5l0,0c0.2,1.3,0.6,2.5,1.2,3.7c0.3,0.5,0.5,1,0.5,1.6
					c0,0.9,0,1.8,0.1,2.7c0,0.7,0.2,1.4,0.4,2.1c0.5,1.1,1.2,2.1,2.2,2.8c1.7,1.4,3.5,2.7,5.2,4c1.6,1.3,3.7,1.8,5.7,1.5
					c1.1-0.1,2.3-0.5,3.2-1.2c1.2-0.8,2.3-1.7,3.5-2.6c1.4-0.9,2.6-2.1,3.7-3.4c0.4-0.5,0.7-1.1,0.9-1.7c0.1-1.5,0.2-3,0.4-4.6
					C-1,8.9-1,8.6-0.9,8.4C-0.6,7.8-0.3,7.3,0,6.6c0.4-1,0.7-2,0.8-3c0,0,0,0,0,0v0c0,0,0,0,0,0C1,2,0.8,1.3,0.3,0.9 M-2.8,1.6
					c0,2.1-0.1,4.2-0.3,6.3c-0.1,1-0.3,2.1-0.6,3.1c-0.3,1-0.9,1.8-1.7,2.4l0,0c-0.1,0.1-0.2,0.1-0.2,0.2c-0.1,0-0.1,0.1-0.2,0.1
					l0,0c-1,0.8-1.7,1.5-2.4,2l0,0c-2.1,2-7.4,2.2-10.3,0.6l0,0c-1.2-0.8-2.4-1.7-3.4-2.7l0,0l0,0c-1.3-1-2.2-2.6-2.4-4.2
					c-0.4-3.4-0.5-6.9-0.3-10.3c0-0.7,0.2-1.5,0.3-2.2c0.1-0.6,0.6-1.2,1.2-1.3c0.9-0.3,2-0.3,2.9-0.1c1.9,0.5,3.9,0.6,5.9,0.3
					c1.2-0.3,2.4-0.6,3.6-1.1C-10-5.6-9.4-5.8-8.8-6c0.6-0.1,1.1,0,1.7,0.1C-5.4-5.3-4.1-4-3.4-2.3C-2.9-1.1-2.7,0.3-2.8,1.6"/>
			</g>
			<g id="Grupo_420" transform="translate(22.992 -9.315)">
				<path id="Trazado_391" class="st0" d="M0.3,0.9C0.3,1,0.2,1,0.1,1.1C0.2,1,0.3,1,0.3,0.9"/>
			</g>
			<g id="Grupo_421" transform="translate(21.691 -14.115)">
				<path id="Trazado_392" class="st0" d="M0.3,0.9c0.6,2.4-1.4,3.2-2.2,2.5c-0.6-0.7-1.4-1.3-2.3-1.7c-0.8-0.4-1.8-0.5-2.7-0.5
					c-0.9,0-1.8,0.1-2.7,0.5c-0.9,0.4-1.6,1-2.3,1.7c-0.8,0.8-2.7,0-2.2-2.5c-2.1,2.9,2.3,6.1,4.1,5c0.7-0.4,1.4-0.7,2.1-0.9
					C-7.4,5-7.1,5-6.8,5c0.3,0,0.6,0,0.9,0.1c0.7,0.2,1.5,0.5,2.1,0.9C-1.9,7,2.4,3.8,0.3,0.9"/>
			</g>
			<g id="Grupo_422" transform="translate(38.115 -12.387)">
				<path id="Trazado_393" class="st0" d="M0.3,0.9C0,1.1-0.3,1.2-0.7,1.3c-0.5,0.2-1,0.4-1.5,0.6c-0.3,0.1-0.6,0.3-0.8,0.6
					c-0.1,0.2-0.2,0.3-0.3,0.5c-0.3,0.5-0.4,1-0.7,1.5c-0.1,0.3-0.3,0.6-0.4,1c-0.2-0.4-0.4-0.8-0.5-1.2c-0.2-0.5-0.4-1-0.7-1.5
					c-0.1-0.2-0.2-0.3-0.4-0.5c-0.3-0.3-0.6-0.5-1-0.6c-0.7-0.3-1.5-0.6-2.1-0.9C-8.4,0.6-7.6,0.3-6.9,0c0.3-0.1,0.6-0.3,0.8-0.5
					c0.3-0.2,0.5-0.5,0.6-0.8c0.2-0.5,0.4-0.9,0.6-1.4c0.1-0.3,0.3-0.7,0.4-1l0-0.1C-4.2-3.4-4-3-3.9-2.7C-3.7-2-3.4-1.4-3-0.8
					c0.2,0.2,0.4,0.4,0.6,0.5C-2.2-0.2-2-0.1-1.8,0c0.5,0.2,1,0.4,1.5,0.6C0.1,0.8,0.3,0.9,0.3,0.9"/>
			</g>
			<g id="Grupo_423" transform="translate(38.26 -18.021)">
				<path id="Trazado_394" class="st0" d="M0.3,0.9C0.2,1,0,1.1-0.2,1.1C-0.4,1.2-0.7,1.3-1,1.5c-0.2,0.1-0.3,0.2-0.4,0.3
					C-1.4,1.8-1.5,1.9-1.5,2c-0.1,0.3-0.2,0.5-0.3,0.8C-1.9,3-2,3.1-2.1,3.3c-0.1-0.2-0.2-0.4-0.3-0.6c-0.1-0.3-0.2-0.5-0.3-0.8
					c-0.1-0.1-0.1-0.2-0.2-0.2c-0.1-0.1-0.3-0.2-0.5-0.3c-0.4-0.2-0.7-0.3-1.1-0.5c0.4-0.2,0.7-0.3,1.1-0.5C-3.2,0.4-3.1,0.3-3,0.2
					C-2.8,0.1-2.7,0-2.7-0.2c0.1-0.2,0.2-0.5,0.3-0.7c0.1-0.2,0.1-0.3,0.2-0.5l0,0C-2-1.3-1.9-1.1-1.8-0.9c0.1,0.3,0.3,0.7,0.5,1
					c0.1,0.1,0.2,0.2,0.3,0.3C-1,0.3-0.9,0.4-0.8,0.4C-0.5,0.5-0.3,0.6,0,0.7C0.2,0.8,0.3,0.9,0.3,0.9"/>
			</g>
			<g id="Grupo_424" transform="translate(39.68 -15.628)">
				<path id="Trazado_395" class="st0" d="M0.3,0.9C0.2,1,0.1,1,0,1c-0.2,0.1-0.3,0.1-0.5,0.2c-0.1,0-0.2,0.1-0.2,0.2
					c0,0-0.1,0.1-0.1,0.1C-0.8,1.7-0.9,1.9-1,2C-1,2.1-1,2.2-1.1,2.3c-0.1-0.1-0.1-0.2-0.2-0.4c-0.1-0.2-0.1-0.3-0.2-0.4
					c0-0.1-0.1-0.1-0.1-0.1c-0.1-0.1-0.2-0.1-0.3-0.2C-2.1,1.1-2.3,1-2.5,0.9c0.2-0.1,0.4-0.2,0.7-0.3c0.1,0,0.2-0.1,0.2-0.1
					c0.1-0.1,0.1-0.1,0.2-0.2C-1.3,0.1-1.3,0-1.2-0.2c0-0.1,0.1-0.2,0.1-0.3l0,0C-1-0.4-1-0.3-0.9-0.2C-0.9,0-0.8,0.2-0.7,0.4
					c0.1,0.1,0.1,0.1,0.2,0.2c0.1,0,0.1,0.1,0.2,0.1C-0.2,0.7,0,0.7,0.1,0.8C0.3,0.9,0.3,0.9,0.3,0.9"/>
			</g>
		</g>
	</g>
</g>
</svg>
