<?xml version="1.0" encoding="utf-8"?>
<!-- Generator: Adobe Illustrator 25.4.1, SVG Export Plug-In . SVG Version: 6.00 Build 0)  -->
<svg version="1.1" id="Capa_1" xmlns="http://www.w3.org/2000/svg" xmlns:xlink="http://www.w3.org/1999/xlink" x="0px" y="0px"
	 viewBox="0 0 40.4 39.7" style="enable-background:new 0 0 40.4 39.7;" xml:space="preserve">
<style type="text/css">
	.st0{fill:#FFFFFF;}
</style>
<g id="Grupo_408" transform="translate(-331.122 -5012.879)">
	<path id="Trazado_370" class="st0" d="M348.2,5047.8c-1.4,0-2.5-1.1-2.5-2.5s1.1-2.5,2.5-2.5c1.4,0,2.5,1.1,2.5,2.5
		C350.8,5046.7,349.6,5047.8,348.2,5047.8 M339.9,5039.2c-1.4,0-2.5-1.1-2.5-2.5s1.1-2.5,2.5-2.5s2.5,1.1,2.5,2.5l0,0
		C342.4,5038,341.3,5039.2,339.9,5039.2 M348.3,5036.6l0.3,0.8c0.3,0.7,0.1,1.6-0.5,2.1l-2.1,2c-2.1,1.3-2.7,3.9-1.5,6
		c1.3,2.1,3.9,2.7,6,1.5c2.1-1.3,2.7-3.9,1.5-6c-0.2-0.4-0.5-0.7-0.8-1l-0.9-4.5c0.1-0.2,0.1-0.4,0.3-0.6l9.6-17.9l-0.3-0.1
		c-0.4-0.1-0.9,0-1.1,0.4l-10.7,14.9L348.3,5036.6z M346.8,5035l-3-0.3c-1.1-2.2-3.7-3-5.9-2c-2.2,1.1-3,3.7-2,5.9
		c1.1,2.2,3.7,3,5.9,2c0.6-0.3,1.2-0.8,1.6-1.4l2.4-2.3c0.5-0.4,1.1-0.6,1.8-0.5L346.8,5035z"/>
	<path id="Trazado_371" class="st0" d="M354.4,5031l-2.3,4.8l13.4-9.3c0.4-0.2,0.6-0.7,0.5-1.1l-0.1-0.7L354.4,5031z"/>
	<path id="Trazado_372" class="st0" d="M347.1,5033.8l1.9-2.6l-0.5-0.5c0,0,0-0.1,0-0.1l5.2-5.8l0.1-0.1c0-0.1,0-0.1,0-0.2l-0.5-0.5
		c-0.1-0.1-0.2-0.1-0.2,0l-5.8,5.2c0,0-0.1,0-0.1,0l-0.4-0.4c0,0,0-0.1,0-0.1l5.2-5.8c0.1-0.1,0.1-0.2,0-0.2l-0.5-0.5
		c-0.1-0.1-0.2-0.1-0.2,0l-5.8,5.2c0,0-0.1,0-0.1,0l-0.4-0.4c0,0,0-0.1,0-0.1l5.2-5.8c0.1-0.1,0.1-0.2,0-0.2l-0.5-0.5
		c-0.1-0.1-0.2-0.1-0.2,0l-5.8,5.2c0,0-0.1,0-0.1,0l-0.4-0.4c0,0,0-0.1,0-0.1l5.2-5.8c0.1-0.1,0.1-0.2,0-0.2l-0.5-0.5
		c-0.1-0.1-0.2-0.1-0.2,0l-5.8,5.2c0,0-0.1,0-0.1,0l-0.4-0.4c0,0,0-0.1,0-0.1l5.2-5.8c0.1-0.1,0.1-0.2,0-0.2l-0.6-0.6
		c-0.1-0.1-0.2-0.1-0.3,0l-6.7,6.7c-0.6,0.6-0.6,1.6,0,2.2L347.1,5033.8z"/>
	<path id="Trazado_373" class="st0" d="M357.4,5028.2c0,0,0-0.1-0.1-0.1l-0.5-0.5c-0.1-0.1-0.1-0.1-0.2,0l-0.8,1.5L357.4,5028.2z"/>
	<path id="Trazado_374" class="st0" d="M368.5,5039.3l-0.5-0.5c-0.1-0.1-0.2-0.1-0.2,0l-5.8,5.2c0,0-0.1,0-0.1,0l-0.4-0.4
		c0,0,0-0.1,0-0.1l5.2-5.8c0.1-0.1,0.1-0.2,0-0.2l-0.5-0.5c-0.1-0.1-0.2-0.1-0.2,0l-5.8,5.2c0,0-0.1,0-0.1,0l-0.4-0.4
		c0,0,0-0.1,0-0.1l5.2-5.8c0.1-0.1,0.1-0.2,0-0.2l-0.5-0.5c-0.1-0.1-0.2-0.1-0.2,0l-5.8,5.2c0,0-0.1,0-0.1,0l-0.4-0.4
		c0,0,0-0.1,0-0.1l5.2-5.8c0.1-0.1,0.1-0.2,0-0.2l-0.5-0.5c-0.1-0.1-0.2-0.1-0.2,0l-5.8,5.2c0,0-0.1,0-0.1,0l-0.4-0.4
		c0,0,0-0.1,0-0.1l5.2-5.8c0.1-0.1,0.1-0.2,0-0.2l-0.5-0.5c-0.1-0.1-0.2-0.1-0.2,0l-5.8,5.2c0,0-0.1,0-0.1,0l-0.6-0.6
		c-0.1-0.1-0.2-0.1-0.3,0l-2.2,1.6l0,0.1l0.1,0.4l8.3,8.3c0.6,0.6,1.6,0.6,2.2,0l6.7-6.7C368.6,5039.5,368.6,5039.4,368.5,5039.3
		C368.5,5039.3,368.5,5039.3,368.5,5039.3"/>
</g>
</svg>
