<?xml version="1.0" encoding="utf-8"?>
<!-- Generator: Adobe Illustrator 25.4.1, SVG Export Plug-In . SVG Version: 6.00 Build 0)  -->
<svg version="1.1" id="Capa_1" xmlns="http://www.w3.org/2000/svg" xmlns:xlink="http://www.w3.org/1999/xlink" x="0px" y="0px"
	 viewBox="0 0 40.4 39.7" style="enable-background:new 0 0 40.4 39.7;" xml:space="preserve">
<style type="text/css">
	.st0{fill:#FFFFFF;}
</style>
<g id="Grupo_410" transform="translate(-1619.212 -5016.969)">
	<path id="Trazado_378" class="st0" d="M1642,5051.3c-2.5,2.3-6.3,2.3-8.8,0l-5-4.8c-2.3-2.2-2.4-5.9-0.3-8.2
		c0.1-0.1,0.2-0.2,0.3-0.3l6.4-6.1c0.5-0.5,1.3-0.5,1.8,0c0.9,0.8,0.9,2.2,0,3c0,0-0.1,0.1-0.1,0.1l-3.1,3c-0.1,0-0.1,0.1,0,0.2
		c0,0,0,0,0,0l0.1,0c0.1,0.1,0.1,0.1,0.2,0l9.2-8.8c0.7-0.7,1.8-0.7,2.6,0c0.7,0.6,0.7,1.7,0,2.3c0,0,0,0,0,0l-6.4,6.1
		c-0.1,0.1-0.1,0.1,0,0.2c0,0,0,0,0,0l0,0c0.1,0.1,0.1,0.1,0.2,0l9.3-8.9c0.7-0.7,1.8-0.7,2.6,0c0.7,0.6,0.7,1.7,0,2.3
		c0,0,0,0-0.1,0l-9.4,9c-0.1,0-0.1,0.1,0,0.2c0,0,0,0,0,0l0.1,0.1c0.1,0.1,0.1,0.1,0.2,0l7-6.7c0.7-0.7,1.8-0.7,2.6,0
		c0.7,0.6,0.7,1.7,0,2.3c0,0,0,0-0.1,0l-7,6.7c-0.1,0.1-0.1,0.1,0,0.2c0,0,0,0,0,0l0.2,0.2c0.1,0.1,0.1,0.1,0.2,0l4.6-4.4
		c0.7-0.7,1.8-0.7,2.5,0c0.7,0.6,0.7,1.7,0.1,2.3c0,0,0,0-0.1,0.1L1642,5051.3z"/>
	<path id="Trazado_379" class="st0" d="M1642.7,5027.6h-14.6c-0.9,0-1.7-0.7-1.7-1.6v-0.3c0-0.9,0.8-1.7,1.7-1.6h14.6
		c0.9,0,1.7,0.7,1.7,1.6v0.3C1644.4,5026.9,1643.6,5027.6,1642.7,5027.6"/>
	<path id="Trazado_380" class="st0" d="M1644.1,5023.4c-0.2,0-0.4-0.2-0.4-0.4v-2.1c0-0.2,0.2-0.4,0.4-0.4s0.4,0.2,0.4,0.4v2.1
		C1644.5,5023.3,1644.3,5023.4,1644.1,5023.4"/>
	<path id="Trazado_381" class="st0" d="M1648,5025h-2.2c-0.2,0-0.4-0.2-0.4-0.4c0-0.2,0.2-0.4,0.4-0.4h2.2c0.2,0,0.4,0.2,0.4,0.4
		C1648.4,5024.9,1648.3,5025,1648,5025"/>
	<path id="Trazado_382" class="st0" d="M1645.4,5023.9c-0.1,0-0.2,0-0.3-0.1c-0.2-0.1-0.2-0.4,0-0.5c0,0,0,0,0,0l1.6-1.5
		c0.2-0.1,0.4-0.1,0.6,0c0.2,0.1,0.2,0.4,0,0.5c0,0,0,0,0,0l-1.6,1.5C1645.6,5023.8,1645.5,5023.9,1645.4,5023.9"/>
</g>
</svg>
