<?xml version="1.0" encoding="utf-8"?>
<!-- Generator: Adobe Illustrator 25.4.1, SVG Export Plug-In . SVG Version: 6.00 Build 0)  -->
<svg version="1.1" id="Capa_1" xmlns="http://www.w3.org/2000/svg" xmlns:xlink="http://www.w3.org/1999/xlink" x="0px" y="0px"
	 viewBox="0 0 40.4 39.7" style="enable-background:new 0 0 40.4 39.7;" xml:space="preserve">
<style type="text/css">
	.st0{clip-path:url(#SVGID_00000098936468407646872790000006868989579934291885_);}
	.st1{fill:#FFFFFF;}
</style>
<g id="Grupo_418" transform="translate(0 34.504)">
	<g>
		<defs>
			<rect id="SVGID_1_" x="3" y="-31.9" width="34.3" height="34.5"/>
		</defs>
		<clipPath id="SVGID_00000011027231280225940560000008205245095730825361_">
			<use xlink:href="#SVGID_1_"  style="overflow:visible;"/>
		</clipPath>
		<g id="Grupo_417" style="clip-path:url(#SVGID_00000011027231280225940560000008205245095730825361_);">
			<g id="Grupo_411" transform="translate(14.606 -9.098)">
				<path id="Trazado_383" class="st1" d="M3,2.6c-0.2-0.2-0.6-0.2-0.8,0c0,0,0,0,0,0C-1.3,6-6.7,6.5-10.7,3.7
					C-11,3.6-11.3,3.7-11.5,4c0,0,0,0,0,0c-0.2,0.3-0.1,0.6,0.2,0.8c1.9,1.3,4.1,2,6.3,2c3-0.1,5.8-1.3,8-3.3C3.3,3.2,3.3,2.8,3,2.6
					"/>
			</g>
			<g id="Grupo_412" transform="translate(12.149 -2.497)">
				<path id="Trazado_384" class="st1" d="M3,2.6C3,2.6-3.7,6.1-8.1,1.5c-0.2-0.2-0.6-0.2-0.8,0c0,0,0,0,0,0c-0.2,0.2-0.2,0.6,0,0.9
					c1.7,1.8,4.1,2.8,6.6,2.7c2,0,4.1-0.5,5.9-1.4c0.2-0.1,0.3-0.3,0.3-0.5c0-0.2-0.1-0.4-0.3-0.6C3.4,2.5,3.2,2.5,3,2.6"/>
			</g>
			<g id="Grupo_413" transform="translate(34.017 -6.893)">
				<path id="Trazado_385" class="st1" d="M3,2.6C3.3,2.4,3.4,2,3.2,1.8C3,1.5,2.7,1.4,2.4,1.5c0,0,0,0,0,0c-4,2.8-9.4,2.3-12.9-1.1
					c-0.2-0.2-0.6-0.2-0.8,0c0,0,0,0,0,0c-0.2,0.2-0.2,0.6,0,0.9c2.2,2.1,5,3.3,8,3.3C-1,4.6,1.2,3.9,3,2.6"/>
			</g>
			<g id="Grupo_414" transform="translate(21.613 -1.389)">
				<path id="Trazado_386" class="st1" d="M3,2.6C4.9,3.5,6.9,3.9,8.9,4C11.4,4,13.8,3,15.5,1.2c0.2-0.2,0.2-0.6,0-0.9
					c-0.2-0.2-0.6-0.2-0.8,0c0,0,0,0,0,0C10.3,4.9,3.6,1.5,3.6,1.5c-0.3-0.1-0.6,0-0.8,0.3c0,0,0,0,0,0C2.6,2.1,2.7,2.4,3,2.6"/>
			</g>
			<g id="Grupo_415" transform="translate(33.948 -19.097)">
				<path id="Trazado_387" class="st1" d="M3,2.6l-4-7.9c-0.1-0.1-1-1-3.2-3.2c-0.5-0.5-0.9-1.2-1-1.9l-0.4-2.5h-6.8
					c0,1.9-0.1,11.2-0.4,12.4c0,0,0,0,0,0c-0.3,1-0.8,2.7-0.8,2.9l-0.1,5.3c0,0.8,0.6,1.4,1.3,1.5h0c0.4,0,0.7-0.2,1-0.4
					c0.3-0.3,0.4-0.6,0.4-1l0.1-4.7c0-0.1,0.1-0.1,0.1-0.2c0.1,0,0.2,0,0.2,0.1l4.3,8.2c0.2,0.5,0.7,0.7,1.2,0.8
					c0.5,0,0.9-0.3,1.2-0.8c0.2-0.5,0.2-1,0-1.4c0,0,0,0,0,0l-3.5-6.9c0-0.1,0-0.2,0.1-0.2c0.1,0,0.2,0,0.2,0.1c0,0,0,0,0,0l3.5,6.9
					v0l1.1,1.8c0,0,0,0,0,0c0.2,0.5,0.7,0.7,1.2,0.7h0c0.5,0,0.9-0.3,1.2-0.8c0.2-0.5,0.2-1,0-1.5v0l-0.6-1.1c0,0,0,0,0,0l-3.6-7.1
					c0-0.1,0-0.2,0.1-0.2c0.1,0,0.2,0,0.2,0.1c0,0,0,0,0,0l3.6,7c0,0,0,0,0,0C-0.3,9,0.2,9.3,0.7,9.3h0c0.5,0,1-0.3,1.2-0.8
					c0.2-0.5,0.2-1,0-1.5v0L0.4,4.3c0,0,0,0,0,0l-2.5-5c0-0.1,0-0.2,0.1-0.2C-2-1-1.9-1-1.8-0.9c0,0,0,0,0,0l2.6,5.1l0,0
					C1,4.5,1.4,4.8,1.9,4.8l0,0C2.4,4.8,2.8,4.5,3,4C3.3,3.6,3.3,3,3,2.6"/>
			</g>
			<g id="Grupo_416" transform="translate(14.202 -18.527)">
				<path id="Trazado_388" class="st1" d="M3,2.6l0.1,4.7c0,0.4,0.1,0.7,0.4,1c0.2,0.3,0.6,0.4,1,0.4h0c0.8,0,1.4-0.7,1.3-1.5L5.7,2
					C5.7,1.7,5.3,0,5-1c0,0,0,0,0,0C4.7-2.2,4.6-11.4,4.6-13.4h-6.8l-0.4,2.5C-2.7-10.2-3-9.5-3.6-9c-1.1,1-2.2,2-3.2,3.2l-4,7.9
					c-0.2,0.5-0.3,1,0,1.4c0.2,0.4,0.7,0.7,1.2,0.8l0,0c0.3,0,0.7-0.1,0.9-0.4c0.1-0.1,0.2-0.2,0.2-0.3l2.6-5c0-0.1,0.1-0.1,0.2-0.1
					c0,0,0,0,0,0c0.1,0.1,0.1,0.2,0.1,0.2l-2.5,5.1l0,0l-1.4,2.8c0,0,0,0,0,0c-0.3,0.4-0.3,1,0,1.5C-9.5,8.5-9,8.7-8.5,8.8
					c0.5,0,1-0.3,1.2-0.7c0,0,0,0,0,0l3.5-7c0-0.1,0.1-0.1,0.2-0.1c0,0,0,0,0,0C-3.4,1-3.4,1.1-3.4,1.2L-7,8.3c0,0,0,0,0,0l-0.6,1.1
					v0c-0.3,0.4-0.3,1,0,1.5c0.2,0.4,0.7,0.7,1.2,0.8l0,0c0.5,0,1-0.3,1.2-0.7l0,0l1.1-1.8l3.5-6.9c0-0.1,0.1-0.1,0.2-0.1
					c0,0,0,0,0,0c0.1,0.1,0.1,0.2,0.1,0.2l-3.5,6.9l0,0l0,0c-0.3,0.4-0.3,1,0,1.4c0.2,0.4,0.7,0.7,1.2,0.8c0.5,0,1-0.3,1.2-0.8
					l4.3-8.2c0-0.1,0.1-0.1,0.2-0.1C3,2.4,3,2.5,3,2.6"/>
			</g>
		</g>
	</g>
</g>
</svg>
