<?xml version="1.0" encoding="utf-8"?>
<!-- Generator: Adobe Illustrator 25.4.1, SVG Export Plug-In . SVG Version: 6.00 Build 0)  -->
<svg version="1.1" id="Capa_1" xmlns="http://www.w3.org/2000/svg" xmlns:xlink="http://www.w3.org/1999/xlink" x="0px" y="0px"
	 viewBox="0 0 40.4 39.7" style="enable-background:new 0 0 40.4 39.7;" xml:space="preserve">
<style type="text/css">
	.st0{fill:#FFFFFF;}
</style>
<g id="Grupo_457" transform="translate(0)">
	<path id="Trazado_360" class="st0" d="M16.4,6.5H24c0.1,0,0.1-0.1,0.1-0.1c0,0,0,0,0-0.1c-1.1-2.1-3.8-2.9-6-1.8
		c-0.8,0.4-1.4,1-1.8,1.8C16.3,6.4,16.3,6.5,16.4,6.5C16.4,6.5,16.4,6.5,16.4,6.5z"/>
	<path id="Trazado_361" class="st0" d="M14.2,10.6h12.1c0.2,0,0.3-0.1,0.3-0.3V8.1c0-0.2-0.1-0.3-0.3-0.3h-0.8
		c-0.1,0-0.2,0.1-0.3,0.1l-0.7,1.4c-0.1,0.1-0.2,0.1-0.2,0l0-1.3c0-0.1-0.1-0.2-0.2-0.2h-10c-0.2,0-0.3,0.1-0.3,0.3v2.2
		C13.9,10.4,14,10.6,14.2,10.6C14.2,10.6,14.2,10.6,14.2,10.6z"/>
	<path id="Trazado_362" class="st0" d="M26.2,29.1H14.2c-0.2,0-0.3,0.1-0.3,0.3v2.2c0,0.2,0.1,0.3,0.3,0.3h0.8
		c0.1,0,0.2-0.1,0.3-0.1l0.7-1.4c0.1-0.1,0.2-0.1,0.2,0l0,1.3c0,0.1,0.1,0.2,0.2,0.2h10c0.2,0,0.3-0.1,0.3-0.3v-2.2
		C26.5,29.3,26.4,29.1,26.2,29.1C26.2,29.1,26.2,29.1,26.2,29.1z"/>
	<path id="Trazado_363" class="st0" d="M24,33.2h-7.5c-0.1,0-0.1,0.1-0.1,0.1c0,0,0,0,0,0.1c1.1,2.1,3.8,2.9,6,1.8
		c0.8-0.4,1.4-1,1.8-1.8C24.1,33.3,24.1,33.2,24,33.2C24,33.2,24,33.2,24,33.2z"/>
	<path id="Trazado_364" class="st0" d="M14.9,14.8l2.8-2.8c0.1-0.1,0.1-0.1,0-0.2c0,0-0.1,0-0.1,0h-2.8c-0.1,0-0.1,0.1-0.1,0.1l0,0
		v2.8C14.6,14.8,14.7,14.9,14.9,14.8C14.8,14.9,14.8,14.9,14.9,14.8z"/>
	<path id="Trazado_365" class="st0" d="M14.6,23c0,0.1,0.1,0.1,0.1,0.1c0,0,0.1,0,0.1,0l9-9.1l1.9-1.9c0.1-0.1,0.1-0.1,0-0.2
		c0,0-0.1,0-0.1,0h-3.3c-0.2,0-0.3,0.1-0.5,0.2l-7,7c-0.1,0.1-0.2,0.3-0.2,0.5L14.6,23z"/>
	<path id="Trazado_366" class="st0" d="M25.5,24.9l-2.8,2.8c-0.1,0.1-0.1,0.1,0,0.2c0,0,0.1,0,0.1,0h2.8c0.1,0,0.1-0.1,0.1-0.1
		c0,0,0,0,0,0V25C25.8,24.9,25.7,24.8,25.5,24.9C25.6,24.8,25.6,24.8,25.5,24.9z"/>
	<path id="Trazado_367" class="st0" d="M25.8,16.7c0-0.1-0.1-0.1-0.1-0.1c0,0-0.1,0-0.1,0L14.7,27.7c-0.1,0.1-0.1,0.1,0,0.2
		c0,0,0.1,0,0.1,0h3.3c0.2,0,0.3-0.1,0.5-0.2l7-7c0.1-0.1,0.2-0.3,0.2-0.5L25.8,16.7z"/>
</g>
</svg>
