<?xml version="1.0" encoding="utf-8"?>
<!-- Generator: Adobe Illustrator 25.4.1, SVG Export Plug-In . SVG Version: 6.00 Build 0)  -->
<svg version="1.1" id="Capa_1" xmlns="http://www.w3.org/2000/svg" xmlns:xlink="http://www.w3.org/1999/xlink" x="0px" y="0px"
	 viewBox="0 0 359.4 23.9" style="enable-background:new 0 0 359.4 23.9;" xml:space="preserve">
<style type="text/css">
	.st0{fill:#FFFFFF;}
	.st1{fill:none;stroke:#FFFFFF;stroke-linecap:round;stroke-linejoin:round;stroke-miterlimit:10;}
</style>
<g id="Grupo_438" transform="translate(-71.451 -393.959)">
	<path id="Trazado_401" class="st0" d="M256.7,407.6c-0.2-0.1-0.4-0.2-0.6-0.2l-3.3,0.6c-0.1,0-0.1,0-0.1-0.1v-0.1l9.7-9.7
		c0.2-0.2,0.3-0.6,0-0.8l0,0l-3.1-3.1c-0.2-0.2-0.6-0.2-0.8,0l-5.8,5.8c-0.1,0.2-0.2,0.4-0.2,0.6l0.6,3.3c0,0.1,0,0.1-0.1,0.1h-0.1
		l-9.8-9.7c-0.2-0.2-0.6-0.2-0.8,0l-3.1,3.1c-0.2,0.2-0.2,0.6,0,0.8l5.8,5.8c0.2,0.1,0.4,0.2,0.6,0.2l3.3-0.6c0.1,0,0.1,0,0.1,0.1
		v0.1c0,0-7.5,7.5-9.7,9.8c-0.2,0.2-0.2,0.6,0,0.8l3.1,3.1c0.2,0.2,0.6,0.2,0.8,0l5.8-5.8c0.1-0.2,0.2-0.4,0.2-0.6l-0.6-3.3
		c0-0.1,0-0.1,0.1-0.1h0.1l9.7,9.7c0.2,0.2,0.6,0.2,0.8,0l3.1-3.1c0.2-0.2,0.2-0.6,0-0.8L256.7,407.6z"/>
	<path id="Trazado_404" class="st0" d="M240.3,408.5h1.2l0,0l0,0l-1-1.5c-0.1-0.1-0.1-0.1-0.2-0.1l-0.5-0.1l0,0l0,0
		c0.5-0.1,0.9-0.4,1.2-0.7c0.2-0.3,0.3-0.7,0.3-1c0-0.4-0.1-0.9-0.4-1.2c-0.4-0.4-1-0.6-1.5-0.5h-2.2c-0.1,0-0.2,0.1-0.2,0.2l0,0
		v4.8c0,0.1,0.1,0.2,0.2,0.2l0,0h0.9l0,0l0,0v-1.7l0,0l0,0h0.9l1.1,1.6C240.1,408.4,240.2,408.5,240.3,408.5z M238.1,405.8
		L238.1,405.8L238.1,405.8v-1.5l0,0l0,0h1.1c0.2,0,0.5,0.1,0.7,0.2s0.2,0.3,0.2,0.5s-0.1,0.4-0.2,0.6c-0.2,0.1-0.4,0.2-0.7,0.2
		L238.1,405.8z"/>
	<path id="Trazado_405" class="st0" d="M265.1,407.6l-0.6-0.6c-0.1-0.1-0.2-0.1-0.3,0c-0.3,0.3-0.8,0.5-1.2,0.5
		c-0.9,0-1.5-0.7-1.5-1.6l0,0c-0.1-0.8,0.5-1.6,1.4-1.7h0.1c0.4,0,0.9,0.2,1.2,0.4c0.1,0.1,0.2,0.1,0.3,0l0.6-0.7
		c-0.5-0.5-1.3-0.8-2.1-0.8c-1.5,0-2.7,1.2-2.7,2.7s1.2,2.7,2.7,2.7C263.8,408.6,264.5,408.2,265.1,407.6z"/>
</g>
<line class="st1" x1="0.6" y1="11.9" x2="149.6" y2="11.9"/>
<line class="st1" x1="209.6" y1="11.9" x2="358.6" y2="11.9"/>
<g>
	<path class="st0" d="M193.5,22.7c0,0.4-0.3,0.8-0.8,0.8c-0.4,0-0.8-0.3-0.8-0.8c0-0.4,0.4-0.8,0.8-0.8
		C193.2,21.9,193.5,22.2,193.5,22.7z M192.1,22.7c0,0.3,0.3,0.6,0.6,0.6c0.3,0,0.6-0.3,0.6-0.6c0-0.3-0.3-0.6-0.6-0.6
		C192.4,22,192.1,22.3,192.1,22.7z M192.6,23.1h-0.2v-0.8c0.1,0,0.2,0,0.3,0c0.1,0,0.2,0,0.3,0.1c0,0,0.1,0.1,0.1,0.2
		c0,0.1-0.1,0.2-0.2,0.2v0c0.1,0,0.1,0.1,0.1,0.2c0,0.1,0,0.2,0.1,0.2h-0.2c0,0,0-0.1-0.1-0.2c0-0.1-0.1-0.1-0.2-0.1h-0.1V23.1z
		 M192.6,22.6L192.6,22.6c0.2,0,0.3,0,0.3-0.1c0-0.1-0.1-0.1-0.2-0.1c0,0-0.1,0-0.1,0V22.6z"/>
</g>
</svg>
