<svg xmlns="http://www.w3.org/2000/svg" width="23.168" height="57.987" viewBox="0 0 23.168 57.987">
  <g id="Grupo_406" data-name="Grupo 406" transform="translate(-205.937 -4454.688)">
    <path id="Trazado_360" data-name="Trazado 360" d="M210.651,4459.3h13.74a.25.25,0,0,0,.221-.369,8.047,8.047,0,0,0-14.182,0A.25.25,0,0,0,210.651,4459.3Z" fill="#836b1d"/>
    <path id="Trazado_361" data-name="Trazado 361" d="M206.492,4466.7H228.55a.583.583,0,0,0,.555-.555v-4.034a.554.554,0,0,0-.555-.555l-1.375,0a.493.493,0,0,0-.478.272l-1.2,2.491c-.095.2-.309.173-.309-.051l-.013-2.313a.405.405,0,0,0-.4-.4l-18.28,0a.593.593,0,0,0-.555.555v4.034A.554.554,0,0,0,206.492,4466.7Z" fill="#836b1d"/>
    <path id="Trazado_362" data-name="Trazado 362" d="M228.55,4500.668H206.492a.584.584,0,0,0-.555.556v4.034a.554.554,0,0,0,.555.555h1.375a.493.493,0,0,0,.478-.271l1.2-2.491c.1-.2.309-.174.309.051l.013,2.313a.4.4,0,0,0,.4.4l18.28,0a.594.594,0,0,0,.555-.555v-4.034A.555.555,0,0,0,228.55,4500.668Z" fill="#836b1d"/>
    <path id="Trazado_363" data-name="Trazado 363" d="M224.391,4508.063h-13.74a.251.251,0,0,0-.221.369,8.047,8.047,0,0,0,14.182,0A.251.251,0,0,0,224.391,4508.063Z" fill="#836b1d"/>
    <path id="Trazado_364" data-name="Trazado 364" d="M207.762,4474.512l5.132-5.132a.255.255,0,0,0-.181-.435h-5.132a.256.256,0,0,0-.255.256v5.132A.255.255,0,0,0,207.762,4474.512Z" fill="#836b1d"/>
    <path id="Trazado_365" data-name="Trazado 365" d="M207.326,4489.428a.251.251,0,0,0,.43.176s16.288-16.587,16.429-16.729l3.457-3.5a.251.251,0,0,0-.178-.428H221.4a1.2,1.2,0,0,0-.849.35l-12.875,12.826a1.2,1.2,0,0,0-.352.847Z" fill="#836b1d"/>
    <path id="Trazado_366" data-name="Trazado 366" d="M227.28,4492.859l-5.132,5.131a.255.255,0,0,0,.181.436h5.132a.255.255,0,0,0,.255-.255v-5.132A.255.255,0,0,0,227.28,4492.859Z" fill="#836b1d"/>
    <path id="Trazado_367" data-name="Trazado 367" d="M227.716,4477.943a.251.251,0,0,0-.43-.176L207.4,4498a.251.251,0,0,0,.178.428h6.063a1.2,1.2,0,0,0,.849-.351l12.875-12.825a1.2,1.2,0,0,0,.352-.848Z" fill="#836b1d"/>
  </g>
</svg>
