<?xml version="1.0" encoding="utf-8"?>
<!-- Generator: Adobe Illustrator 25.4.1, SVG Export Plug-In . SVG Version: 6.00 Build 0)  -->
<svg version="1.1" id="Capa_1" xmlns="http://www.w3.org/2000/svg" xmlns:xlink="http://www.w3.org/1999/xlink" x="0px" y="0px"
	 viewBox="0 0 25 25" style="enable-background:new 0 0 25 25;" xml:space="preserve">
<style type="text/css">
	.st0{fill:#FFFFFF;}
</style>
<g>
	<g id="Grupo_473" transform="translate(5.769 5.769)">
		<g id="Grupo_147" transform="translate(0 0)">
			<g id="Grupo_144">
				<path id="Trazado_234" class="st0" d="M9.5,13.2H4c-2,0-3.7-1.6-3.7-3.7V4c0-2,1.6-3.7,3.7-3.7h5.6c2,0,3.7,1.6,3.7,3.7v5.6
					C13.2,11.5,11.5,13.2,9.5,13.2z M4,1.4C2.5,1.4,1.4,2.5,1.4,4v5.6c0,1.4,1.1,2.6,2.6,2.6h5.6c1.4,0,2.6-1.1,2.6-2.6V4
					c0-1.4-1.1-2.6-2.6-2.6L4,1.4z"/>
			</g>
			<g id="Grupo_145" transform="translate(3.284 3.284)">
				<path id="Trazado_235" class="st0" d="M3.4,6.7c-1.8,0-3.3-1.5-3.3-3.3s1.5-3.3,3.3-3.3s3.3,1.5,3.3,3.3
					C6.7,5.3,5.3,6.7,3.4,6.7z M3.4,1.3c-1.2,0-2.2,1-2.2,2.2s1,2.2,2.2,2.2s2.2-1,2.2-2.2C5.6,2.2,4.7,1.3,3.4,1.3z"/>
			</g>
			<g id="Grupo_146" transform="translate(9.498 2.258)">
				<path id="Trazado_236" class="st0" d="M1.5,1c0,0.4-0.4,0.8-0.8,0.8C0.2,1.8-0.1,1.4-0.1,1s0.4-0.8,0.8-0.8l0,0
					C1.1,0.2,1.5,0.5,1.5,1L1.5,1z"/>
			</g>
		</g>
	</g>
</g>
</svg>
