<svg width="253" height="38" viewBox="0 0 253 38" fill="none" xmlns="http://www.w3.org/2000/svg">
<path d="M29.8935 21.6892C29.6568 21.4554 29.3608 21.3969 29.0648 21.4554L24.2108 22.3323C24.0924 22.3323 23.974 22.2154 24.0924 22.0985L38.5952 7.71692C38.9504 7.36615 39.0096 6.89846 38.5952 6.48923L34.0372 1.98769C33.682 1.63692 33.1493 1.63692 32.7941 1.98769L24.0924 10.5231C23.8556 10.7569 23.7964 11.0492 23.8556 11.3415L24.6844 16.1938C24.6844 16.3108 24.566 16.4277 24.4476 16.3108L9.94478 1.98769C9.58961 1.63692 8.99766 1.69538 8.70168 1.98769L4.14366 6.48923C3.78849 6.83999 3.78849 7.36615 4.14366 7.71692L12.7861 16.3108C13.0229 16.5446 13.3189 16.6031 13.6149 16.5446L18.5281 15.7261C18.6465 15.7261 18.7649 15.8431 18.6465 15.96C18.6465 15.96 7.39939 27.0092 4.08447 30.3415C3.72929 30.6923 3.78849 31.2769 4.08447 31.5692C5.20917 32.68 8.64249 36.0708 8.64249 36.0708C8.99766 36.4215 9.53042 36.4215 9.88559 36.0708L18.5873 27.4769C18.8241 27.2431 18.8832 26.9508 18.8241 26.6585L17.9953 21.8646C17.9953 21.7477 18.1137 21.6308 18.2321 21.7477L32.7941 36.0708C33.1493 36.4215 33.7412 36.3631 34.0372 36.0708L38.5952 31.5692C38.9504 31.2185 38.9504 30.6923 38.5952 30.3415L29.8935 21.6892Z" fill="white"/>
<path d="M100.099 19.1169C99.6254 18.7077 99.0927 18.4154 98.3823 18.1231C97.7312 17.8308 96.9616 17.5969 96.0737 17.3631C95.3634 17.1877 94.7122 17.0123 94.2387 16.8369C93.7651 16.72 93.4099 16.5446 93.114 16.3692C92.818 16.1939 92.6404 16.0185 92.522 15.8431C92.4036 15.6677 92.3444 15.4339 92.3444 15.1415V15.0831C92.3444 14.6739 92.522 14.3231 92.8772 14.0308C93.2323 13.7385 93.7651 13.6215 94.5346 13.6215C95.3042 13.6215 96.0145 13.7969 96.7249 14.0892C97.2576 14.3231 97.7904 14.6154 98.3823 14.9077C98.7375 15.0831 99.1519 15.0246 99.3886 14.7323L100.928 12.5108C100.04 11.8092 99.0927 11.2831 98.0272 10.9323C96.9616 10.5815 95.8369 10.4062 94.5938 10.4062C93.7059 10.4062 92.9364 10.5231 92.1668 10.7569C91.4565 10.9908 90.8053 11.3415 90.2726 11.8092C89.7398 12.2769 89.3255 12.8031 89.0295 13.3877C88.7335 14.0308 88.6151 14.6739 88.6151 15.4339V15.4923C88.6151 16.3108 88.7335 17.0123 89.0295 17.5969C89.3255 18.1815 89.6806 18.6492 90.1542 19C90.6278 19.3508 91.2197 19.7015 91.9301 19.9354C92.6404 20.1692 93.4099 20.4031 94.2387 20.6369C94.949 20.8123 95.541 20.9877 95.9553 21.1631C96.4289 21.3385 96.7249 21.4554 97.0208 21.6308C97.2576 21.8062 97.4352 21.9815 97.5536 22.1569C97.672 22.3323 97.672 22.5662 97.672 22.8V22.8C97.672 23.2677 97.4352 23.6769 97.0208 23.9692C96.6065 24.2615 96.0145 24.3785 95.1858 24.3785C94.2387 24.3785 93.2915 24.2031 92.522 23.8523C91.8709 23.56 91.2789 23.2092 90.687 22.8C90.391 22.5662 89.9174 22.6246 89.6806 22.9169L87.9048 25.0215C88.9111 25.9569 90.0358 26.6 91.2789 27.0677C92.522 27.5354 93.8243 27.7108 95.0674 27.7108C96.0145 27.7108 96.8433 27.5938 97.6128 27.36C98.3823 27.1262 99.0335 26.7754 99.5662 26.3662C100.099 25.8985 100.513 25.3723 100.869 24.7292C101.164 24.0862 101.342 23.3262 101.342 22.5077V22.4492C101.342 21.6892 101.224 21.1046 100.987 20.5785C100.75 20.0523 100.573 19.5262 100.099 19.1169Z" fill="white"/>
<path d="M206.769 22.7415C206.295 23.1508 205.762 23.5015 205.289 23.7354C204.638 24.0861 203.809 24.2615 202.803 24.2615C202.092 24.2615 201.382 24.1446 200.79 23.8523C200.198 23.56 199.665 23.2092 199.251 22.7415C198.836 22.2738 198.481 21.6892 198.245 21.0461C198.008 20.4031 197.889 19.7015 197.889 19V18.9415C197.889 18.24 198.008 17.5385 198.245 16.8954C198.481 16.2523 198.836 15.7261 199.251 15.2C199.665 14.7323 200.198 14.3231 200.79 14.0892C201.382 13.7969 202.033 13.68 202.743 13.68C203.572 13.68 204.401 13.8554 205.052 14.2061C205.526 14.44 206.058 14.7908 206.532 15.1415C206.828 15.3754 207.301 15.3754 207.538 15.0831L209.432 12.92C209.018 12.5108 208.604 12.16 208.189 11.8677C207.716 11.5754 207.242 11.2831 206.709 11.0492C206.177 10.8154 205.585 10.64 204.934 10.5231C204.282 10.4061 203.572 10.3477 202.743 10.3477C201.441 10.3477 200.257 10.5815 199.132 11.0492C198.067 11.5169 197.12 12.1015 196.35 12.92C195.581 13.7385 194.989 14.6154 194.515 15.6677C194.101 16.72 193.864 17.8308 193.864 19.0585V19.1169C193.864 20.3446 194.101 21.4554 194.515 22.5077C194.93 23.56 195.581 24.4954 196.35 25.2554C197.12 26.0154 198.067 26.6585 199.132 27.0677C200.198 27.5354 201.382 27.7108 202.625 27.7108C203.454 27.7108 204.223 27.6523 204.874 27.5354C205.526 27.4185 206.177 27.1846 206.709 26.9508C207.242 26.6585 207.775 26.3661 208.249 26.0154C208.722 25.6646 209.196 25.2554 209.61 24.7877L207.775 22.8C207.538 22.5077 207.065 22.5077 206.769 22.7415Z" fill="white"/>
<path d="M225.889 11.3415V20.2277C225.889 21.5723 225.593 22.5662 224.942 23.2677C224.29 23.9108 223.402 24.2615 222.219 24.2615C221.094 24.2615 220.147 23.9108 219.496 23.2092C218.844 22.5077 218.548 21.4554 218.548 20.1108V11.3415C218.548 10.9323 218.193 10.64 217.838 10.64H214.819V20.2277C214.819 22.6831 215.47 24.5539 216.773 25.84C218.075 27.1262 219.91 27.7108 222.159 27.7108C223.284 27.7108 224.35 27.5354 225.237 27.2431C226.125 26.9508 226.954 26.4831 227.605 25.84C228.256 25.1969 228.73 24.4369 229.085 23.5015C229.44 22.5662 229.618 21.4554 229.618 20.1692V10.5815H226.599C226.244 10.5815 225.889 10.9323 225.889 11.3415Z" fill="white"/>
<path d="M60.7934 22.1569L59.2544 21.9231V21.8646C59.8463 21.7477 61.9773 21.1631 63.3388 19.4677C63.99 18.5908 64.3451 17.48 64.3451 16.1354V16.0769C64.3451 14.4985 63.8716 13.2123 62.8653 12.2185C61.7406 11.1077 60.0831 10.5231 57.8929 10.5231H50.9078C50.4935 10.5231 50.1975 10.8738 50.1975 11.2246V26.5415C50.1975 26.9508 50.5527 27.2431 50.9078 27.2431H53.8676V21.9231H56.7682H56.8274L60.2607 26.9508C60.3791 27.1261 60.6159 27.3015 60.8526 27.3015H64.8187L61.563 22.5661C61.3854 22.3908 61.0894 22.2154 60.7934 22.1569ZM53.9268 18.7661V13.9723H57.5969C58.544 13.9723 59.2544 14.1477 59.7871 14.5569C60.3199 14.9661 60.5567 15.5508 60.5567 16.3692V16.3692C60.5567 17.0708 60.3199 17.6554 59.7871 18.1231C59.3136 18.5323 58.6032 18.7661 57.6561 18.7661H53.9268Z" fill="white"/>
<path d="M135.734 22.1569L134.195 21.9231V21.8646C134.787 21.7477 136.918 21.1631 138.28 19.4677C138.931 18.5908 139.286 17.48 139.286 16.1354V16.0769C139.286 14.4985 138.813 13.2123 137.806 12.2185C136.682 11.1077 135.024 10.5231 132.834 10.5231H125.79C125.375 10.5231 125.079 10.8738 125.079 11.2246V26.5415C125.079 26.9508 125.435 27.2431 125.79 27.2431H128.749V21.9231H131.65H131.709L135.143 26.9508C135.261 27.1261 135.498 27.3015 135.734 27.3015H139.701L136.445 22.5661C136.267 22.3908 136.03 22.2154 135.734 22.1569ZM128.809 18.7661V13.9723H132.479C133.426 13.9723 134.136 14.1477 134.669 14.5569C135.202 14.9661 135.438 15.5508 135.438 16.3692V16.3692C135.438 17.0708 135.202 17.6554 134.669 18.1231C134.195 18.5323 133.485 18.7661 132.538 18.7661H128.809Z" fill="white"/>
<path d="M74.6451 24.3784L73.8164 25.3138V20.5784H81.0974C81.5118 20.5784 81.8077 20.2277 81.8077 19.8769V17.3046H73.8164V13.9138H82.1629C82.5773 13.9138 82.8732 13.5631 82.8732 13.2123V10.64H70.7974C70.3831 10.64 70.0871 10.9908 70.0871 11.3415V26.6584C70.0871 27.0677 70.4423 27.36 70.7974 27.36H82.2221C82.6365 27.36 82.9324 27.0092 82.9324 26.6584V24.0861H75.0595C75.0003 24.0861 74.8227 24.2031 74.6451 24.3784Z" fill="white"/>
<path d="M111.405 24.3784L110.577 25.3138V20.5784H117.858C118.272 20.5784 118.568 20.2277 118.568 19.8769V17.3046H110.577V13.9138H118.982C119.397 13.9138 119.693 13.5631 119.693 13.2123V10.64H107.617C107.202 10.64 106.906 10.9908 106.906 11.3415V26.6584C106.906 27.0677 107.262 27.36 107.617 27.36H119.041C119.456 27.36 119.752 27.0092 119.752 26.6584V24.0861H111.879C111.76 24.0861 111.583 24.2031 111.405 24.3784Z" fill="white"/>
<path d="M170.778 24.3784L169.949 25.3138V20.5784H177.23C177.645 20.5784 177.941 20.2277 177.941 19.8769V17.3046H169.949V13.9138H178.296C178.71 13.9138 179.006 13.5631 179.006 13.2123V10.64H166.93C166.516 10.64 166.22 10.9908 166.22 11.3415V26.6584C166.22 27.0677 166.575 27.36 166.93 27.36H178.355C178.769 27.36 179.065 27.0092 179.065 26.6584V24.0861H171.192C171.074 24.0861 170.896 24.2031 170.778 24.3784Z" fill="white"/>
<path d="M235.064 10.5815V13.2708C235.064 13.68 235.419 13.9723 235.774 13.9723H239.03C239.267 13.9723 239.444 13.8554 239.563 13.7385L240.155 13.0369V26.6585C240.155 27.0677 240.51 27.36 240.865 27.36H243.884V14.0308H248.324C248.738 14.0308 249.034 13.68 249.034 13.3292V10.64H235.064V10.5815Z" fill="white"/>
<path d="M156.867 11.0492L153.789 19.1169L153.256 20.4615C153.079 20.8708 153.138 21.3385 153.138 21.3385L153.256 23.6769L152.25 21.0462L148.402 11.0492C148.284 10.7569 148.047 10.5815 147.692 10.5815H144.081L150.711 26.8923C150.829 27.1846 151.066 27.36 151.362 27.36H154.144L160.952 10.5815H157.459C157.222 10.5815 156.986 10.8154 156.867 11.0492Z" fill="white"/>
</svg>
