<?xml version="1.0" encoding="utf-8"?>
<!-- Generator: Adobe Illustrator 25.4.1, SVG Export Plug-In . SVG Version: 6.00 Build 0)  -->
<svg version="1.1" id="Capa_1" xmlns="http://www.w3.org/2000/svg" xmlns:xlink="http://www.w3.org/1999/xlink" x="0px" y="0px"
	 viewBox="0 0 200.8 170.4" style="enable-background:new 0 0 200.8 170.4;" xml:space="preserve">
<style type="text/css">
	.st0{fill:#FFFFFF;}
</style>
<g id="Grupo_361" transform="translate(-219.525 -381.576)">
	<path id="Trazado_331" class="st0" d="M357.1,478.1c-1-1-2.5-1.4-3.8-1.1l-18.8,2.8c-0.4,0.1-0.7-0.2-0.8-0.5c0-0.2,0-0.4,0.2-0.6
		l63.7-63.7c1.6-1.4,1.7-3.8,0.3-5.4c-0.1-0.1-0.2-0.2-0.3-0.3l-20.7-20.7c-1.6-1.6-4.1-1.6-5.7,0c0,0,0,0,0,0l-40.5,40.5
		c-1,1-1.4,2.5-1.1,3.8l2.8,18.8c0.1,0.4-0.2,0.7-0.5,0.8c-0.2,0-0.4,0-0.6-0.2l-63.8-63.7c-1.6-1.4-4.1-1.4-5.7,0l-20.7,20.7
		c-1.6,1.6-1.6,4.1,0,5.7l40.5,40.5c1,1,2.5,1.4,3.8,1.1l18.8-2.9c0.4-0.1,0.7,0.2,0.8,0.5c0,0.2,0,0.4-0.2,0.6
		c0,0-48.7,48.6-63.8,63.8c-1.6,1.6-1.6,4.1,0,5.7c5.2,5.2,20.7,20.7,20.7,20.7c1.6,1.6,4.1,1.6,5.7,0c0,0,0,0,0,0l40.4-40.4
		c1-1,1.4-2.5,1.1-3.8l-2.8-18.9c-0.1-0.4,0.2-0.7,0.5-0.8c0.2,0,0.4,0,0.6,0.2l63.8,63.8c1.6,1.5,4.1,1.5,5.7,0l20.7-20.7
		c1.6-1.6,1.6-4.1,0-5.7L357.1,478.1z"/>
	<path id="Trazado_332" class="st0" d="M411.8,539.3c0-1.2-0.8-2-2.3-2h-2.3v5.7h1v-1.7h1.6l1.1,1.7h1.1l-1.3-1.9
		C411.4,540.9,411.8,540.1,411.8,539.3z M409.5,540.5h-1.3v-2.4h1.3c0.9,0,1.4,0.4,1.4,1.2C410.9,540.1,410.4,540.5,409.5,540.5
		L409.5,540.5z"/>
	<path id="Trazado_333" class="st0" d="M409.4,534.7c-3.2,0-5.7,2.5-5.8,5.7c0,3.2,2.5,5.7,5.7,5.8c3.2,0,5.7-2.5,5.8-5.7
		c0,0,0,0,0,0C415,537.2,412.5,534.7,409.4,534.7z M409.3,545.1c-2.6,0-4.7-2.2-4.7-4.8s2.2-4.7,4.8-4.7c2.6,0,4.7,2.1,4.7,4.7
		C414.1,543,412,545.1,409.3,545.1C409.4,545.1,409.3,545.1,409.3,545.1L409.3,545.1z"/>
	<path id="Trazado_334" class="st0" d="M247.1,484.9h8.2c0,0,0,0,0,0c0,0,0,0,0,0l-6.8-10c-0.4-0.5-0.9-0.9-1.6-1l-3.2-0.5
		c0,0,0,0,0,0c0,0,0,0,0,0c3.3-0.7,6.3-2.5,8.5-5c1.5-2,2.3-4.5,2.1-7c0.1-3-1-6-3-8.2c-2.4-2.4-5.8-3.6-10.3-3.6h-14.6
		c-0.8,0-1.5,0.7-1.5,1.5v32.3c0,0.8,0.7,1.5,1.5,1.5h6.2c0,0,0,0,0,0v-11.2c0,0,0,0,0,0c0,0,0,0,0,0h6.1l7.1,10.6
		C246.1,484.6,246.6,484.9,247.1,484.9z M232.6,466.7C232.6,466.7,232.6,466.6,232.6,466.7l0-10.1c0,0,0,0,0,0h7.7
		c1.6-0.1,3.2,0.3,4.5,1.3c1,0.9,1.6,2.1,1.6,3.5c0,2.1-0.5,3.1-1.5,4c-1.3,1-2.8,1.5-4.4,1.4H232.6z"/>
	<path id="Trazado_335" class="st0" d="M415.1,479.1l-3.9-4c-0.6-0.6-1.5-0.6-2.1-0.1c-2.2,2.1-5.2,3.3-8.3,3.2
		c-5.2,0-10.2-4.3-10.2-10.9c0-8.1,5.7-11.4,10.2-11.4c2.9,0,5.8,1.1,8,3c0.6,0.5,1.6,0.4,2.1-0.2l4-4.6c-0.8-0.8-5.1-5.5-14-5.5
		c-8.2,0-18.3,5.9-18.3,18.5c0,11.1,9.1,18,18.3,18C406.2,485.6,411.5,483.2,415.1,479.1z"/>
</g>
</svg>
