<?xml version="1.0" encoding="utf-8"?>
<!-- Generator: Adobe Illustrator 26.0.1, SVG Export Plug-In . SVG Version: 6.00 Build 0)  -->
<svg version="1.1" id="Capa_1" xmlns="http://www.w3.org/2000/svg" xmlns:xlink="http://www.w3.org/1999/xlink" x="0px" y="0px"
	 viewBox="0 0 585.2 63.4" style="enable-background:new 0 0 585.2 63.4;" xml:space="preserve">
<path d="M110.4,31.7c0.5,9.4-0.9,16.9-4.3,22.4c-3.3,5.5-8.5,7.9-15.6,7.3c-6-0.4-11.1-3.8-15.4-9.8c-4.4-6.3-6.9-13.7-7.1-21.4
	c-0.4-8.8,1.2-15.8,5-21c3.4-5,9.2-7.9,15.3-7.6c6.1,0,11.3,2.9,15.4,8.8C107.8,16.3,110.1,23.4,110.4,31.7z M26.1,29.8
	c4.6-0.4,7.7-1.9,9.5-4.7c1.8-3,2.7-6.5,2.5-10c0.1-5.8-2-9.7-6.1-11.4c-3.9-1.8-8.4-2.5-15.4-2.2v28.7C19.8,30.3,23,30.1,26.1,29.8
	z M411.3,10.4c-4.1-5.9-9.3-8.8-15.4-8.8c-6.1-0.3-11.9,2.6-15.3,7.6c-3.8,5.2-5.4,12.2-5,21c0.2,7.7,2.7,15.1,7.1,21.4
	c4.3,6,9.4,9.4,15.4,9.8c7.1,0.6,12.3-1.8,15.6-7.3c3.4-5.5,4.8-13,4.3-22.4C417.7,23.4,415.4,16.3,411.3,10.4z M26,31.2
	c-2.5-0.2-5.6-0.2-9.4-0.1v23.1c-0.1,2.1,0.7,4.1,2.1,5.6c0.7,0.5,1.5,0.9,2.4,1.1c1.7,0.4,3.4,0.5,5.1,0.4
	c8.2,0.2,15.7-3.2,15.8-14.6C42.1,36.2,36.2,31.5,26,31.2z M347.1,16.4c0.1-12.3-7.5-15.9-22.2-15.1l0.1,30.3c2.7,0,5.3-0.1,8-0.4
	C342.1,30.1,347,24.5,347.1,16.4z M482.1,10.4c-4.1-5.9-9.3-8.8-15.4-8.8c-6.1-0.3-11.9,2.6-15.3,7.6c-3.8,5.2-5.4,12.2-5,21
	c0.2,7.7,2.7,15.1,7.1,21.4c4.3,6,9.4,9.4,15.4,9.8c7.1,0.6,12.3-1.8,15.6-7.3c3.4-5.5,4.8-13,4.3-22.4
	C488.5,23.4,486.2,16.3,482.1,10.4z M585.4-0.3v64.1H-0.4V-0.3H585.4z M50.5,46.2c0-13.4-10.2-15.9-17-15.9
	c7.8-0.7,12.7-6.4,12.7-14.8c0-10.4-6.8-14.8-19.8-14.8L0.9,0.9c-0.3,0-0.6,0-0.9,0l0.9,0c0.7,0,1.4,0.2,2.1,0.5
	c0.9,0.2,1.7,0.6,2.5,1c1.9,1.2,3,3.3,3,5.6v46.6c0,3.3-1.7,5.7-3.9,6.5c-1.4,0.6-3,1-4.6,1l28.2,0.2c3.2,0,6.5-0.2,9.7-0.8
	c1.7-0.3,3.3-0.9,4.8-1.7C47,57.4,50.5,53.8,50.5,46.2z M113.4,10.5c-4.3-6.3-12.2-10.3-22.3-10.3c-9.2,0-16.9,2.8-23,8.4
	c-6.2,5.5-9.3,13-9.4,22.4c-0.2,7.6,2.2,15.1,6.7,21.2C70,58.6,78.4,63,88.6,63c9.1,0.1,16.7-3,22.3-8.8c5.6-5.8,8.5-13.3,8.8-22.2
	C120,24.4,117.8,16.8,113.4,10.5z M152.3,25.7c-9.1-1.9-14.1-5.9-15.1-11.9c-0.7-4.3,0.9-8.6,4.3-10.7c3.3-1.8,7.1-2.3,10.7-1.4
	c4.1,0.9,7.8,2.9,10.7,5.8c3.6,3.3,6,6.4,7,9.1l-0.2-12.4l-1.9-1c-4.7-2.1-9.9-3.2-15.1-3.2c-6.1-0.1-11.1,1.4-15,4.4
	c-3.8,2.7-6.1,7-6.1,11.7c-0.4,4.2,0.9,8.4,3.5,11.6c2.6,3.1,7.3,5.4,14.2,7.1c7.9,1.8,13.2,4.1,16.1,6.9c2.7,2.5,4.2,6,4,9.7
	c-0.2,4.2-2,7.1-5.6,8.6c-3.5,1.5-7.6,1.7-12.3,0.7c-5-1.2-9.5-3.7-13.2-7.3c-3.9-3.7-6.9-8.3-8.7-13.3l0.2,16.6
	c5.8,4.3,13.4,6.6,22.8,6.7c5.1,0.2,10.1-1.2,14.4-3.9c4-2.7,6.3-6.8,6.7-12.5C175.1,35.5,169,29.2,152.3,25.7z M204.6,25.7
	c-9.1-1.9-14.1-5.9-15.1-11.9c-0.7-4.3,0.9-8.6,4.3-10.7c3.3-1.8,7.1-2.3,10.7-1.4c4.1,0.9,7.8,2.9,10.7,5.8c3.6,3.3,6,6.4,7,9.1
	L222,4.2l-1.9-1C215.4,1.1,210.2,0,205,0c-6.1-0.1-11.1,1.4-15,4.4c-3.8,2.7-6.1,7-6.1,11.7c-0.4,4.2,0.9,8.4,3.5,11.6
	c2.6,3.1,7.3,5.4,14.2,7.1c7.9,1.8,13.2,4.1,16.1,6.9c2.7,2.5,4.2,6,4,9.7c-0.2,4.2-2,7.1-5.6,8.6c-3.5,1.5-7.6,1.7-12.3,0.7
	c-5-1.2-9.5-3.7-13.2-7.3c-3.9-3.7-6.9-8.3-8.7-13.3l0.2,16.6c5.8,4.3,13.4,6.6,22.8,6.7c5.1,0.2,10.1-1.2,14.4-3.9
	c4-2.7,6.3-6.8,6.7-12.5C227.4,35.5,221.3,29.2,204.6,25.7z M272.1,38C272.1,37.9,272.1,37.9,272.1,38l16-16.5
	c0.4-0.4,0.4-1,0.1-1.4c0,0,0,0-0.1-0.1l-5-5.1c-0.4-0.4-1-0.4-1.4,0l-9.5,9.8c-0.2,0.3-0.3,0.6-0.3,1l0.9,5.5c0,0.1,0,0.2-0.1,0.2
	c-0.1,0-0.1,0-0.1,0l-16-16.5c-0.4-0.4-1-0.4-1.4,0l-5,5.1c-0.4,0.4-0.4,1,0,1.4l9.5,9.8c0.2,0.2,0.6,0.3,0.9,0.3l5.4-1
	c0.1,0,0.2,0,0.2,0.1c0,0.1,0,0.1,0,0.1s-12.3,12.7-16,16.4c-0.4,0.4-0.4,1,0,1.4c1.3,1.3,5,5.1,5,5.1c0.4,0.4,1,0.4,1.4,0l9.6-9.8
	c0.2-0.3,0.3-0.6,0.3-1l-1-5.2c0-0.1,0-0.2,0.1-0.2c0.1,0,0.1,0,0.1,0l16,16.4c0.4,0.4,1,0.4,1.4,0l5-5.1c0.4-0.4,0.4-1,0-1.4
	l-9.5-9.9c-0.2-0.2-0.6-0.3-0.9-0.3l-5.4,1C272.2,38.1,272.1,38.1,272.1,38z M365.8,62.1l-1.5-0.5c-2-0.8-5.7-3.9-7.9-7.8l-8-13.4
	c-2.7-4.8-5.2-7.5-7.5-8.2c3-0.3,5.9-1.5,8.2-3.5c3.8-3,6-7.4,6-12.2c0.3-3.3-0.6-6.5-2.5-9.2c-3.5-5.2-9.6-6.7-21.2-6.8
	c-2.4-0.1-6.1,0-11.1,0.2c-5,0.1-8.7,0.2-11.1,0.2c1.3,0,2.6,0.3,3.8,0.8c2.1,0.7,3.6,2.9,3.6,6v47.6c0,3.1-1.4,5.2-3.4,6
	c-1.3,0.6-2.6,0.9-4,0.9h21.4c0.2,0,0.5,0,0.7,0h-0.7c-1.6-0.1-3.1-0.7-4.3-1.7c-1-1-1.5-2.4-1.5-3.8l0.1-24.2h2.9
	c0.5,0,0.9,0,1.4,0.1c1,0,2,0.2,2.8,0.6c2.3,0.9,4.6,2.4,6.8,6.3l8,13.7c1.7,3.2,3.7,6.2,6,8.9H365.8z M421,10.5
	c-4.3-6.3-12.2-10.3-22.3-10.3c-9.2,0-16.9,2.8-23,8.4c-6.2,5.5-9.3,13-9.4,22.4c-0.2,7.6,2.2,15.1,6.7,21.2
	c4.6,6.4,13,10.8,23.2,10.8c9.1,0.1,16.7-3,22.3-8.8c5.6-5.8,8.5-13.3,8.8-22.2C427.6,24.4,425.4,16.8,421,10.5z M491.8,10.5
	c-4.3-6.3-12.2-10.3-22.3-10.3c-9.2,0-16.9,2.8-23,8.4c-6.2,5.5-9.3,13-9.4,22.4c-0.2,7.6,2.2,15.1,6.7,21.2
	c4.6,6.4,13,10.8,23.2,10.8c9.1,0.1,16.7-3,22.3-8.8c5.6-5.8,8.5-13.3,8.8-22.2C498.4,24.4,496.2,16.8,491.8,10.5z M585.3,62.2
	c-1.5,0-3-0.4-4.3-1.1c-2.1-1-3.6-3.3-3.6-6.7h-0.1V9c0-0.1,0-0.2,0-0.3c-0.1-4.2,3.2-7.7,7.4-7.8H570l-18.5,42.9
	c-2.6,5.9-4.2,5.6-7.4-0.4L521.9,0.8h-16.5l0.3,0.1c1.4,0,8.4,2.3,8.4,13.2v36c0,7.1-3.3,10.2-6.2,11.4c-1.1,0.5-2.4,0.8-3.6,0.8h21
	c-1.3-0.1-2.5-0.3-3.7-0.8s-2.3-1-3.2-1.8c-1.7-1.5-3.5-5-3.5-9.5L515,15c0-4.8,1.4-5.8,3.8-1.5L544.6,63l20.6-48.2l0.4-0.9
	c1-2.2,1.7-3.3,2.2-3.3c0.8,0.1,1.1,1.9,1.1,5.3v38.5c0,3.5-1.5,5.7-3.5,6.7c-1.3,0.7-2.7,1.1-4.2,1.1H585.3z"/>
</svg>
