<?xml version="1.0" encoding="utf-8"?>
<!-- Generator: Adobe Illustrator 25.4.1, SVG Export Plug-In . SVG Version: 6.00 Build 0)  -->
<svg version="1.1" id="Capa_1" xmlns="http://www.w3.org/2000/svg" xmlns:xlink="http://www.w3.org/1999/xlink" x="0px" y="0px"
	 viewBox="0 0 32.1 28.7" style="enable-background:new 0 0 32.1 28.7;" xml:space="preserve">
<style type="text/css">
	.st0{fill:#FFFFFF;}
</style>
<g id="Grupo_438" transform="translate(-71.451 -393.959)">
	<path id="Trazado_401" class="st0" d="M93.2,410.1c-0.2-0.1-0.4-0.2-0.6-0.2l-3.3,0.6c-0.1,0-0.1,0-0.1-0.1c0,0,0-0.1,0-0.1
		l9.7-9.7c0.2-0.2,0.3-0.6,0-0.8c0,0,0,0,0,0l-3.1-3.1c-0.2-0.2-0.6-0.2-0.8,0l-5.8,5.8c-0.1,0.2-0.2,0.4-0.2,0.6l0.6,3.3
		c0,0.1,0,0.1-0.1,0.1c0,0-0.1,0-0.1,0l-9.8-9.7c-0.2-0.2-0.6-0.2-0.8,0l-3.1,3.1c-0.2,0.2-0.2,0.6,0,0.8l5.8,5.8
		c0.2,0.1,0.4,0.2,0.6,0.2l3.3-0.6c0.1,0,0.1,0,0.1,0.1c0,0,0,0.1,0,0.1c0,0-7.5,7.5-9.7,9.8c-0.2,0.2-0.2,0.6,0,0.8l3.1,3.1
		c0.2,0.2,0.6,0.2,0.8,0l5.8-5.8c0.1-0.2,0.2-0.4,0.2-0.6l-0.6-3.3c0-0.1,0-0.1,0.1-0.1c0,0,0.1,0,0.1,0l9.7,9.7
		c0.2,0.2,0.6,0.2,0.8,0l3.1-3.1c0.2-0.2,0.2-0.6,0-0.8L93.2,410.1z"/>
	<path id="Trazado_402" class="st0" d="M101.1,419c0-0.2-0.1-0.3-0.3-0.3h-0.3v0.8h0.1v-0.3h0.2l0.2,0.3h0.2l-0.2-0.3
		C101,419.3,101.1,419.2,101.1,419z M100.8,419.2h-0.2v-0.3h0.2c0.1,0,0.2,0.1,0.2,0.2S100.9,419.2,100.8,419.2L100.8,419.2z"/>
	<path id="Trazado_403" class="st0" d="M100.7,418.3c-0.5,0-0.8,0.4-0.8,0.8s0.4,0.8,0.8,0.8c0.5,0,0.8-0.4,0.8-0.8c0,0,0,0,0,0
		C101.6,418.7,101.2,418.3,100.7,418.3z M100.7,419.9c-0.4,0-0.7-0.3-0.7-0.7c0-0.4,0.3-0.7,0.7-0.7s0.7,0.3,0.7,0.7
		C101.4,419.6,101.1,419.9,100.7,419.9L100.7,419.9z"/>
	<path id="Trazado_404" class="st0" d="M76.8,411H78c0,0,0,0,0,0c0,0,0,0,0,0l-1-1.5c-0.1-0.1-0.1-0.1-0.2-0.1l-0.5-0.1c0,0,0,0,0,0
		c0,0,0,0,0,0c0.5-0.1,0.9-0.4,1.2-0.7c0.2-0.3,0.3-0.7,0.3-1c0-0.4-0.1-0.9-0.4-1.2c-0.4-0.4-1-0.6-1.5-0.5h-2.2
		c-0.1,0-0.2,0.1-0.2,0.2c0,0,0,0,0,0v4.8c0,0.1,0.1,0.2,0.2,0.2h0h0.9c0,0,0,0,0,0l0,0v-1.7c0,0,0,0,0,0h0h0.9l1.1,1.6
		C76.6,410.9,76.7,411,76.8,411z M74.6,408.3C74.6,408.3,74.6,408.3,74.6,408.3L74.6,408.3l0-1.5c0,0,0,0,0,0h0h1.1
		c0.2,0,0.5,0.1,0.7,0.2c0.2,0.1,0.2,0.3,0.2,0.5c0,0.2-0.1,0.4-0.2,0.6c-0.2,0.1-0.4,0.2-0.7,0.2L74.6,408.3z"/>
	<path id="Trazado_405" class="st0" d="M101.6,410.1l-0.6-0.6c-0.1-0.1-0.2-0.1-0.3,0c-0.3,0.3-0.8,0.5-1.2,0.5
		c-0.9,0-1.5-0.7-1.5-1.6c0,0,0,0,0,0c-0.1-0.8,0.5-1.6,1.4-1.7c0,0,0.1,0,0.1,0c0.4,0,0.9,0.2,1.2,0.4c0.1,0.1,0.2,0.1,0.3,0
		l0.6-0.7c-0.5-0.5-1.3-0.8-2.1-0.8c-1.5,0-2.7,1.2-2.7,2.7c0,1.5,1.2,2.7,2.7,2.7C100.3,411.1,101,410.7,101.6,410.1z"/>
</g>
</svg>
