<?xml version="1.0" encoding="utf-8"?>
<!-- Generator: Adobe Illustrator 25.4.1, SVG Export Plug-In . SVG Version: 6.00 Build 0)  -->
<svg version="1.1" id="Capa_1" xmlns="http://www.w3.org/2000/svg" xmlns:xlink="http://www.w3.org/1999/xlink" x="0px" y="0px"
	 viewBox="0 0 870.4 426.6" style="enable-background:new 0 0 870.4 426.6;" xml:space="preserve">
<style type="text/css">
	.st0{fill:#836B1D;}
	.st1{fill:none;stroke:#A1831F;stroke-width:2;}
</style>
<g id="Grupo_400" transform="translate(197.576 -4454.688)">
	<path id="Trazado_360" class="st0" d="M231.3,4474.7H245c0.1,0,0.3-0.1,0.3-0.2c0,0,0-0.1,0-0.1c-2.1-3.9-7-5.4-10.9-3.3
		c-1.4,0.7-2.5,1.9-3.3,3.3c-0.1,0.1,0,0.3,0.1,0.3C231.2,4474.7,231.2,4474.7,231.3,4474.7z"/>
	<path id="Trazado_361" class="st0" d="M227.1,4482.1h22.1c0.3,0,0.5-0.3,0.6-0.6v-4c0-0.3-0.2-0.6-0.6-0.6c0,0,0,0,0,0h-1.4
		c-0.2,0-0.4,0.1-0.5,0.3l-1.2,2.5c-0.1,0.2-0.3,0.2-0.3-0.1l0-2.3c0-0.2-0.2-0.4-0.4-0.4h-18.3c-0.3,0-0.5,0.3-0.6,0.6v4
		C226.5,4481.8,226.8,4482.1,227.1,4482.1z"/>
	<path id="Trazado_362" class="st0" d="M249.2,4516.1h-22.1c-0.3,0-0.5,0.3-0.6,0.6v4c0,0.3,0.2,0.6,0.6,0.6c0,0,0,0,0,0h1.4
		c0.2,0,0.4-0.1,0.5-0.3l1.2-2.5c0.1-0.2,0.3-0.2,0.3,0.1l0,2.3c0,0.2,0.2,0.4,0.4,0.4h18.3c0.3,0,0.5-0.3,0.6-0.6v-4
		C249.7,4516.3,249.5,4516.1,249.2,4516.1z"/>
	<path id="Trazado_363" class="st0" d="M245,4523.5h-13.7c-0.1,0-0.3,0.1-0.3,0.3c0,0,0,0.1,0,0.1c2.1,3.9,7,5.4,10.9,3.3
		c1.4-0.7,2.5-1.9,3.3-3.3c0.1-0.1,0-0.3-0.1-0.3C245.1,4523.5,245,4523.5,245,4523.5z"/>
	<path id="Trazado_364" class="st0" d="M228.4,4489.9l5.1-5.1c0.1-0.1,0.1-0.3,0-0.4c0,0-0.1-0.1-0.2-0.1h-5.1
		c-0.1,0-0.3,0.1-0.3,0.3v5.1c0,0.1,0.1,0.3,0.3,0.3C228.3,4490,228.3,4490,228.4,4489.9z"/>
	<path id="Trazado_365" class="st0" d="M227.9,4504.8c0,0.1,0.1,0.3,0.3,0.3c0.1,0,0.1,0,0.2-0.1c0,0,16.3-16.6,16.4-16.7l3.5-3.5
		c0.1-0.1,0.1-0.3,0-0.4c0,0-0.1-0.1-0.2-0.1H242c-0.3,0-0.6,0.1-0.8,0.4l-12.9,12.8c-0.2,0.2-0.4,0.5-0.4,0.8L227.9,4504.8z"/>
	<path id="Trazado_366" class="st0" d="M247.9,4508.3l-5.1,5.1c-0.1,0.1-0.1,0.3,0,0.4c0,0,0.1,0.1,0.2,0.1h5.1
		c0.1,0,0.3-0.1,0.3-0.3v-5.1c0-0.1-0.1-0.3-0.3-0.3C248,4508.2,247.9,4508.2,247.9,4508.3z"/>
	<path id="Trazado_367" class="st0" d="M248.3,4493.3c0-0.1-0.1-0.3-0.3-0.3c-0.1,0-0.1,0-0.2,0.1l-19.9,20.2
		c-0.1,0.1-0.1,0.3,0,0.4c0,0,0.1,0.1,0.2,0.1h6.1c0.3,0,0.6-0.1,0.8-0.4l12.9-12.8c0.2-0.2,0.4-0.5,0.4-0.8L248.3,4493.3z"/>
</g>
<g id="Grupo_405" transform="translate(0 28.994)">
	<g>
		<g id="Grupo_404" transform="translate(0 0)">
			<g id="Grupo_403" transform="translate(0.642 0.849)">
				<path id="Trazado_368" class="st1" d="M411.2,15.4H20.6v359h828.9v-359H457.5"/>
			</g>
		</g>
	</g>
</g>
</svg>
