<?xml version="1.0" encoding="utf-8"?>
<!-- Generator: Adobe Illustrator 25.4.1, SVG Export Plug-In . SVG Version: 6.00 Build 0)  -->
<svg version="1.1" id="Capa_1" xmlns="http://www.w3.org/2000/svg" xmlns:xlink="http://www.w3.org/1999/xlink" x="0px" y="0px"
	 viewBox="0 0 25 25" style="enable-background:new 0 0 25 25;" xml:space="preserve">
<style type="text/css">
	.st0{fill-rule:evenodd;clip-rule:evenodd;fill:#FEFEFE;}
</style>
<g id="Grupo_471" transform="translate(5.763 5.769)">
	<path id="Trazado_238" class="st0" d="M6.9,12.3c-1.1,0-2.2-0.3-3.2-0.9L1.5,12l0.7-2.1c-0.7-1-1.1-2.1-1.1-3.4c0-0.2,0-0.4,0-0.5
		c0.3-3.2,3.2-5.5,6.3-5.1c2.8,0.3,4.9,2.5,5.2,5.2c0,0.2,0,0.3,0,0.4C12.6,9.7,10,12.3,6.9,12.3L6.9,12.3z M10,7.9
		C9.8,7.8,9,7.4,8.9,7.4C8.7,7.3,8.6,7.3,8.5,7.5C8.3,7.7,8.1,7.9,7.9,8.1c-0.1,0.1-0.2,0.1-0.4,0C7.1,8,6.6,7.7,6.2,7.3
		C5.9,7,5.5,6.6,5.3,6.2C5.2,6,5.3,5.9,5.4,5.8s0.2-0.2,0.3-0.3c0,0,0,0,0.1-0.1c0-0.1,0.1-0.1,0.1-0.2s0-0.2,0-0.3
		c0-0.1-0.4-0.9-0.5-1.2S5,3.5,4.9,3.5s-0.2,0-0.3,0c-0.2,0-0.3,0.1-0.4,0.2C3.7,4.2,3.5,5,3.7,5.7c0,0.3,0.2,0.7,0.5,1.1
		c0.7,1.1,1.7,2,2.9,2.5c1.7,0.7,1.7,0.4,2,0.4c0.5-0.1,0.9-0.4,1.1-0.8c0.1-0.2,0.1-0.5,0.1-0.8C10.3,8.1,10.2,8,10,7.9L10,7.9z
		 M13.7,6.4c-0.1-3.8-3.3-6.7-7.1-6.6C3.1-0.1,0.2,2.7,0,6.3c0,0.1,0,0.2,0,0.3C0,7.8,0.4,9,1,10.1l-1.2,3.6l3.8-1.2
		c3.3,1.8,7.5,0.6,9.3-2.7c0.5-1,0.8-2.1,0.8-3.2C13.7,6.5,13.7,6.4,13.7,6.4L13.7,6.4z"/>
</g>
</svg>
